<svg width="48" height="36" viewBox="0 0 48 36" fill="none" xmlns="http://www.w3.org/2000/svg">
<path d="M40.6323 2.9857C37.5725 1.60579 34.2927 0.585862 30.8629 0.00589995C30.8324 3.61613e-05 30.8008 0.003815 30.7725 0.0167139C30.7442 0.0296128 30.7206 0.0509936 30.7049 0.0778952C30.285 0.815847 29.817 1.77778 29.489 2.53773C25.8514 1.99424 22.1533 1.99424 18.5157 2.53773C18.1504 1.69551 17.7385 0.874291 17.2818 0.0778952C17.2663 0.0506624 17.2429 0.028798 17.2147 0.0152196C17.1865 0.00164122 17.1548 -0.00300543 17.1238 0.00190002C13.6961 0.581862 10.4163 1.6018 7.35448 2.9837C7.32814 2.99475 7.30581 3.01359 7.29048 3.0377C1.06689 12.1871 -0.638997 21.1105 0.198948 29.9219C0.20128 29.9435 0.207979 29.9644 0.218637 29.9833C0.229295 30.0022 0.243689 30.0188 0.260944 30.0319C3.89349 32.6766 7.94511 34.6913 12.2462 35.9915C12.2761 36.0008 12.3082 36.0007 12.3382 35.9915C12.3681 35.9822 12.3946 35.9641 12.4141 35.9395C13.3381 34.6996 14.162 33.3897 14.866 32.0138C14.908 31.9338 14.868 31.8378 14.784 31.8058C13.4921 31.3193 12.2403 30.7322 11.0402 30.0499C11.0187 30.0376 11.0005 30.0201 10.9874 29.9991C10.9742 29.978 10.9665 29.954 10.9649 29.9292C10.9633 29.9045 10.9679 29.8797 10.9783 29.8571C10.9886 29.8345 11.0044 29.8149 11.0242 29.7999C11.2762 29.614 11.5282 29.42 11.7682 29.226C11.7898 29.2085 11.8158 29.1974 11.8434 29.1939C11.8709 29.1904 11.8989 29.1946 11.9242 29.206C19.7777 32.7338 28.2831 32.7338 36.0446 29.206C36.07 29.1939 36.0982 29.1891 36.1262 29.1923C36.1541 29.1955 36.1806 29.2065 36.2026 29.224C36.4426 29.42 36.6925 29.614 36.9465 29.7999C36.9665 29.8146 36.9826 29.834 36.9933 29.8563C37.004 29.8787 37.0089 29.9034 37.0077 29.9282C37.0066 29.9529 36.9993 29.977 36.9865 29.9983C36.9737 30.0195 36.9558 30.0373 36.9345 30.0499C35.7386 30.7379 34.4947 31.3198 33.1888 31.8038C33.1687 31.8111 33.1505 31.8226 33.1352 31.8375C33.1199 31.8524 33.108 31.8704 33.1002 31.8902C33.0925 31.9101 33.0891 31.9314 33.0902 31.9527C33.0913 31.974 33.097 31.9949 33.1068 32.0138C33.8267 33.3877 34.6507 34.6956 35.5566 35.9375C35.5755 35.963 35.6017 35.9821 35.6318 35.9921C35.6618 36.0021 35.6943 36.0026 35.7246 35.9935C40.033 34.6969 44.0913 32.6813 47.7278 30.0319C47.7456 30.0195 47.7605 30.0035 47.7715 29.9848C47.7825 29.9662 47.7895 29.9455 47.7918 29.9239C48.7917 19.7366 46.1159 10.8852 40.6943 3.0417C40.681 3.01621 40.659 2.99634 40.6323 2.9857ZM16.0399 24.5563C13.6761 24.5563 11.7262 22.4184 11.7262 19.7966C11.7262 17.1728 13.6381 15.0369 16.0399 15.0369C18.4597 15.0369 20.3916 17.1908 20.3536 19.7966C20.3536 22.4204 18.4417 24.5563 16.0399 24.5563V24.5563ZM31.9889 24.5563C29.623 24.5563 27.6751 22.4184 27.6751 19.7966C27.6751 17.1728 29.585 15.0369 31.9889 15.0369C34.4087 15.0369 36.3406 17.1908 36.3026 19.7966C36.3026 22.4204 34.4107 24.5563 31.9889 24.5563V24.5563Z" fill="#161616"/>
</svg>
