<svg width="97" height="72" viewBox="0 0 97 72" fill="none" xmlns="http://www.w3.org/2000/svg">
<path d="M52.1549 51.0968H14.6199C-0.789213 36.2581 21.3367 27.0968 20.5465 17.4194L24.3658 23.3548C26.7401 19.8756 27.0744 17.228 27.1316 12.129C27.2738 6.91211 28.5752 4.26401 32.9264 0C34.7644 5.44971 35.967 8.15774 38.9847 11.2258C44.893 17.0682 46.3186 21.7943 46.8868 31.7419C49.4348 27.889 49.6755 25.0482 48.3355 18.9677C58.7399 24.2581 60.1886 41.9355 52.1549 51.0968Z" fill="url(#paint0_linear_45_93)"/>
<path d="M66.3786 56.2581H0.791227C-0.19075 57.0835 -0.180953 57.7039 0.396122 58.9678L10.4054 72H59.7935L63.4811 66.0645L65.0616 68.7742H94.0359C97.8552 68.7742 98.1186 62.5807 94.0359 62.5807H65.0616V60.7742L67.3005 58.5807C67.6956 57.2903 67.6856 56.9077 66.3786 56.2581Z" fill="white"/>
<defs>
<linearGradient id="paint0_linear_45_93" x1="58.0814" y1="39.0968" x2="9.08853" y2="38.6935" gradientUnits="userSpaceOnUse">
<stop stop-color="#EA5FC5"/>
<stop offset="1" stop-color="white"/>
</linearGradient>
</defs>
</svg>
