<svg width="21" height="22" viewBox="0 0 21 22" fill="none" xmlns="http://www.w3.org/2000/svg">
<path d="M15.8738 19.5208L17.1982 19.9171C17.4205 19.9836 17.6073 20.1358 17.7174 20.34C17.8276 20.5443 17.8521 20.7839 17.7856 21.0062C17.719 21.2286 17.5669 21.4153 17.3627 21.5255C17.1584 21.6357 16.9188 21.6602 16.6965 21.5937L12.7919 20.4252C12.5696 20.3587 12.3828 20.2065 12.2727 20.0023C12.1625 19.798 12.138 19.5584 12.2046 19.3361L13.3726 15.4331C13.4391 15.2108 13.5912 15.024 13.7955 14.9138C13.9997 14.8037 14.2393 14.7791 14.4617 14.8457C14.684 14.9122 14.8707 15.0643 14.9809 15.2686C15.0911 15.4728 15.1156 15.7125 15.049 15.9348L14.32 18.3708C15.6289 17.7356 16.7586 16.7841 17.6072 15.6023C18.4557 14.4206 18.9962 13.0459 19.1798 11.6027C19.3633 10.1595 19.1841 8.69332 18.6584 7.33681C18.1327 5.9803 17.2771 4.77628 16.169 3.83371C15.0608 2.89114 13.7351 2.23977 12.3119 1.93853C10.8886 1.63729 9.41271 1.6957 8.01769 2.10846C6.62268 2.52122 5.35259 3.27532 4.32234 4.3025C3.2921 5.32969 2.53423 6.59756 2.1173 7.99137C1.78787 9.0922 1.67847 10.2471 1.79537 11.3902C1.91227 12.5333 2.25317 13.6422 2.79861 14.6535C3.34404 15.6649 4.08332 16.5589 4.97425 17.2845C5.86518 18.0101 6.89031 18.5531 7.9911 18.8826L7.48939 20.5591C4.82161 19.7607 2.58025 17.9353 1.25839 15.4843C-0.0634745 13.0333 -0.357562 10.1575 0.44082 7.48967C1.2392 4.8218 3.06465 2.58034 5.5156 1.25839C7.96654 -0.0635613 10.8422 -0.357715 13.51 0.440639C15.463 1.02496 17.2038 2.16521 18.5197 3.72224C19.8356 5.27927 20.6698 7.18572 20.9204 9.20891C21.171 11.2321 20.8273 13.2845 19.9311 15.1156C19.035 16.9468 17.6252 18.4774 15.8738 19.5208Z" fill="#FD83D5"/>
</svg>
